# xmcd
#
# Track frame offsets:
#	150
#	18412
#	33007
#	50042
#	69285
#	85375
#	100557
#	118340
#	138960
#	165670
#	183855
#	201050
#	219277
#	238927
#
# Disc length: 3472 seconds
#
# Revision: 0
# Processed by: cddbd v1.4PL0 Copyright (c) Steve Scherf et al.
# Submitted via: EasyCDDAExtractor 4.6.9.1
#
DISCID=b80d8e0e
DTITLE=Ray Vega - Geography
DYEAR=1999
DGENRE=Pop
TTITLE0=The Best Of Goodbye
TTITLE1=Ordinary World
TTITLE2=Geography
TTITLE3=I Should`Ve Know Better
TTITLE4=The Dream Will Go On
TTITLE5=You Dont Know What Love Is
TTITLE6=Amor A Mi
TTITLE7=This Time Is Our Time
TTITLE8=Tularosa
TTITLE9=Chains Around My Heart
TTITLE10=Send Me An Angel
TTITLE11=I Just Want Love
TTITLE12=True
TTITLE13=Whole Heart
EXTD=
EXTT0=
EXTT1=
EXTT2=
EXTT3=
EXTT4=
EXTT5=
EXTT6=
EXTT7=
EXTT8=
EXTT9=
EXTT10=
EXTT11=
EXTT12=
EXTT13=
PLAYORDER=
